<mxfile host="app.diagrams.net" modified="2024-05-09T12:49:40.851Z" agent="Mozilla/5.0 (X11; Linux x86_64) AppleWebKit/537.36 (KHTML, like Gecko) Chrome/124.0.0.0 Safari/537.36" etag="4fPQMcewmpI0Qc8rTJBE" version="24.3.1" type="device">
  <diagram name="Trang-1" id="CFPXPpaIDIJWqtEYizQY">
    <mxGraphModel dx="880" dy="508" grid="1" gridSize="10" guides="1" tooltips="1" connect="1" arrows="1" fold="1" page="1" pageScale="1" pageWidth="827" pageHeight="1169" math="0" shadow="0">
      <root>
        <mxCell id="0" />
        <mxCell id="1" parent="0" />
        <mxCell id="irbp7y-JrAI6Zh5LYZ9q-33" value="" style="group" parent="1" vertex="1" connectable="0">
          <mxGeometry x="190" y="40" width="346" height="590" as="geometry" />
        </mxCell>
        <mxCell id="irbp7y-JrAI6Zh5LYZ9q-5" value="" style="whiteSpace=wrap;html=1;align=center;" parent="irbp7y-JrAI6Zh5LYZ9q-33" vertex="1">
          <mxGeometry width="346" height="590" as="geometry" />
        </mxCell>
        <mxCell id="irbp7y-JrAI6Zh5LYZ9q-8" value="Project Management" style="text;strokeColor=none;align=center;fillColor=none;html=1;verticalAlign=middle;whiteSpace=wrap;rounded=0;fontSize=20;" parent="irbp7y-JrAI6Zh5LYZ9q-33" vertex="1">
          <mxGeometry width="346" height="50" as="geometry" />
        </mxCell>
        <mxCell id="irbp7y-JrAI6Zh5LYZ9q-11" value="Create Project" style="ellipse;whiteSpace=wrap;html=1;" parent="irbp7y-JrAI6Zh5LYZ9q-33" vertex="1">
          <mxGeometry x="123" y="450" width="100" height="50" as="geometry" />
        </mxCell>
        <mxCell id="irbp7y-JrAI6Zh5LYZ9q-38" value="Create Task" style="ellipse;whiteSpace=wrap;html=1;" parent="irbp7y-JrAI6Zh5LYZ9q-33" vertex="1">
          <mxGeometry x="70" y="320" width="100" height="50" as="geometry" />
        </mxCell>
        <mxCell id="irbp7y-JrAI6Zh5LYZ9q-45" value="role" style="ellipse;whiteSpace=wrap;html=1;" parent="irbp7y-JrAI6Zh5LYZ9q-33" vertex="1">
          <mxGeometry x="223" y="370" width="100" height="50" as="geometry" />
        </mxCell>
        <mxCell id="irbp7y-JrAI6Zh5LYZ9q-35" style="rounded=0;orthogonalLoop=1;jettySize=auto;html=1;entryX=0;entryY=0.5;entryDx=0;entryDy=0;exitX=1;exitY=0.3333333333333333;exitDx=0;exitDy=0;exitPerimeter=0;endArrow=none;endFill=0;" parent="1" source="irbp7y-JrAI6Zh5LYZ9q-1" target="irbp7y-JrAI6Zh5LYZ9q-12" edge="1">
          <mxGeometry relative="1" as="geometry" />
        </mxCell>
        <mxCell id="irbp7y-JrAI6Zh5LYZ9q-1" value="Employe" style="shape=umlActor;verticalLabelPosition=bottom;verticalAlign=top;html=1;outlineConnect=0;" parent="1" vertex="1">
          <mxGeometry x="40" y="190" width="30" height="60" as="geometry" />
        </mxCell>
        <mxCell id="irbp7y-JrAI6Zh5LYZ9q-37" style="rounded=0;orthogonalLoop=1;jettySize=auto;html=1;entryX=0;entryY=0.5;entryDx=0;entryDy=0;exitX=1;exitY=0.3333333333333333;exitDx=0;exitDy=0;exitPerimeter=0;endArrow=none;endFill=0;" parent="1" source="irbp7y-JrAI6Zh5LYZ9q-9" target="irbp7y-JrAI6Zh5LYZ9q-11" edge="1">
          <mxGeometry relative="1" as="geometry" />
        </mxCell>
        <mxCell id="irbp7y-JrAI6Zh5LYZ9q-44" style="rounded=0;orthogonalLoop=1;jettySize=auto;html=1;entryX=0;entryY=0.3333333333333333;entryDx=0;entryDy=0;entryPerimeter=0;edgeStyle=orthogonalEdgeStyle;endArrow=block;endFill=0;" parent="1" source="irbp7y-JrAI6Zh5LYZ9q-9" target="irbp7y-JrAI6Zh5LYZ9q-1" edge="1">
          <mxGeometry relative="1" as="geometry">
            <mxPoint x="55" y="260" as="targetPoint" />
          </mxGeometry>
        </mxCell>
        <mxCell id="irbp7y-JrAI6Zh5LYZ9q-9" value="Leader" style="shape=umlActor;verticalLabelPosition=bottom;verticalAlign=top;html=1;outlineConnect=0;" parent="1" vertex="1">
          <mxGeometry x="40" y="400" width="30" height="60" as="geometry" />
        </mxCell>
        <mxCell id="irbp7y-JrAI6Zh5LYZ9q-24" style="rounded=0;orthogonalLoop=1;jettySize=auto;html=1;entryX=0;entryY=0.5;entryDx=0;entryDy=0;dashed=1;endArrow=open;endFill=0;" parent="1" source="irbp7y-JrAI6Zh5LYZ9q-10" target="irbp7y-JrAI6Zh5LYZ9q-23" edge="1">
          <mxGeometry relative="1" as="geometry" />
        </mxCell>
        <mxCell id="irbp7y-JrAI6Zh5LYZ9q-25" value="&amp;lt;&amp;lt;include&amp;gt;&amp;gt;" style="edgeLabel;html=1;align=center;verticalAlign=middle;resizable=0;points=[];" parent="irbp7y-JrAI6Zh5LYZ9q-24" vertex="1" connectable="0">
          <mxGeometry x="0.0095" y="1" relative="1" as="geometry">
            <mxPoint y="1" as="offset" />
          </mxGeometry>
        </mxCell>
        <mxCell id="irbp7y-JrAI6Zh5LYZ9q-10" value="Log in" style="ellipse;whiteSpace=wrap;html=1;" parent="1" vertex="1">
          <mxGeometry x="210" y="230" width="100" height="50" as="geometry" />
        </mxCell>
        <mxCell id="irbp7y-JrAI6Zh5LYZ9q-18" style="edgeStyle=orthogonalEdgeStyle;rounded=0;orthogonalLoop=1;jettySize=auto;html=1;entryX=0;entryY=0.5;entryDx=0;entryDy=0;dashed=1;endArrow=open;endFill=0;" parent="1" source="irbp7y-JrAI6Zh5LYZ9q-12" target="irbp7y-JrAI6Zh5LYZ9q-17" edge="1">
          <mxGeometry relative="1" as="geometry" />
        </mxCell>
        <mxCell id="irbp7y-JrAI6Zh5LYZ9q-20" value="&amp;lt;&amp;lt;include&amp;gt;&amp;gt;" style="edgeLabel;html=1;align=center;verticalAlign=middle;resizable=0;points=[];" parent="irbp7y-JrAI6Zh5LYZ9q-18" vertex="1" connectable="0">
          <mxGeometry x="-0.3714" relative="1" as="geometry">
            <mxPoint x="19" as="offset" />
          </mxGeometry>
        </mxCell>
        <mxCell id="irbp7y-JrAI6Zh5LYZ9q-12" value="Register" style="ellipse;whiteSpace=wrap;html=1;" parent="1" vertex="1">
          <mxGeometry x="210" y="140" width="100" height="50" as="geometry" />
        </mxCell>
        <mxCell id="irbp7y-JrAI6Zh5LYZ9q-17" value="Verify Email" style="ellipse;whiteSpace=wrap;html=1;" parent="1" vertex="1">
          <mxGeometry x="420" y="140" width="100" height="50" as="geometry" />
        </mxCell>
        <mxCell id="irbp7y-JrAI6Zh5LYZ9q-23" value="Check Username/Pass" style="ellipse;whiteSpace=wrap;html=1;" parent="1" vertex="1">
          <mxGeometry x="410" y="230" width="100" height="50" as="geometry" />
        </mxCell>
        <mxCell id="irbp7y-JrAI6Zh5LYZ9q-29" style="rounded=0;orthogonalLoop=1;jettySize=auto;html=1;exitX=0;exitY=0.5;exitDx=0;exitDy=0;entryX=1;entryY=1;entryDx=0;entryDy=0;strokeColor=default;dashed=1;endArrow=open;endFill=0;" parent="1" source="irbp7y-JrAI6Zh5LYZ9q-26" target="irbp7y-JrAI6Zh5LYZ9q-10" edge="1">
          <mxGeometry relative="1" as="geometry" />
        </mxCell>
        <mxCell id="irbp7y-JrAI6Zh5LYZ9q-30" value="&amp;lt;&amp;lt;extends&amp;gt;&amp;gt;" style="edgeLabel;html=1;align=center;verticalAlign=middle;resizable=0;points=[];rotation=25;" parent="irbp7y-JrAI6Zh5LYZ9q-29" vertex="1" connectable="0">
          <mxGeometry relative="1" as="geometry">
            <mxPoint as="offset" />
          </mxGeometry>
        </mxCell>
        <mxCell id="irbp7y-JrAI6Zh5LYZ9q-26" value="Show Error" style="ellipse;whiteSpace=wrap;html=1;" parent="1" vertex="1">
          <mxGeometry x="410" y="300" width="100" height="50" as="geometry" />
        </mxCell>
        <mxCell id="irbp7y-JrAI6Zh5LYZ9q-36" style="rounded=0;orthogonalLoop=1;jettySize=auto;html=1;entryX=0;entryY=0.5;entryDx=0;entryDy=0;endArrow=none;endFill=0;" parent="1" target="irbp7y-JrAI6Zh5LYZ9q-10" edge="1">
          <mxGeometry relative="1" as="geometry">
            <mxPoint x="70" y="210" as="sourcePoint" />
            <mxPoint x="220" y="175" as="targetPoint" />
          </mxGeometry>
        </mxCell>
        <mxCell id="irbp7y-JrAI6Zh5LYZ9q-39" style="rounded=0;orthogonalLoop=1;jettySize=auto;html=1;entryX=0;entryY=0.5;entryDx=0;entryDy=0;endArrow=none;endFill=0;exitX=1;exitY=0.3333333333333333;exitDx=0;exitDy=0;exitPerimeter=0;" parent="1" source="irbp7y-JrAI6Zh5LYZ9q-1" target="irbp7y-JrAI6Zh5LYZ9q-38" edge="1">
          <mxGeometry relative="1" as="geometry">
            <mxPoint x="80" y="220" as="sourcePoint" />
            <mxPoint x="220" y="265" as="targetPoint" />
          </mxGeometry>
        </mxCell>
        <mxCell id="irbp7y-JrAI6Zh5LYZ9q-46" style="rounded=0;orthogonalLoop=1;jettySize=auto;html=1;exitX=0;exitY=0.3333333333333333;exitDx=0;exitDy=0;exitPerimeter=0;entryX=1;entryY=0.5;entryDx=0;entryDy=0;endArrow=none;endFill=0;" parent="1" source="irbp7y-JrAI6Zh5LYZ9q-41" target="irbp7y-JrAI6Zh5LYZ9q-45" edge="1">
          <mxGeometry relative="1" as="geometry" />
        </mxCell>
        <mxCell id="irbp7y-JrAI6Zh5LYZ9q-41" value="System" style="shape=umlActor;verticalLabelPosition=bottom;verticalAlign=top;html=1;outlineConnect=0;" parent="1" vertex="1">
          <mxGeometry x="660" y="390" width="30" height="60" as="geometry" />
        </mxCell>
      </root>
    </mxGraphModel>
  </diagram>
</mxfile>
